<svg width="436" height="150" viewBox="0 0 436 150" fill="none" xmlns="http://www.w3.org/2000/svg">
<path d="M124.885 89.601C125.685 95.323 129.445 100.628 135.452 103.479C141.459 106.329 148.288 106.055 153.747 103.292C152.947 97.5701 149.187 92.2647 143.18 89.4146C137.162 86.5755 130.333 86.8496 124.885 89.601Z" fill="#6EBD84"/>
<path d="M86.8368 104.103C86.5956 109.88 89.358 115.767 94.7621 119.647C100.166 123.527 106.93 124.47 112.794 122.727C113.035 116.95 110.273 111.064 104.869 107.184C99.4537 103.303 92.6903 102.349 86.8368 104.103Z" fill="#6EBD84"/>
<path d="M103.345 86.992C108.716 84.0653 112.816 78.6063 113.879 72.0403C114.943 65.4742 112.717 59.3686 108.453 55.4552C103.082 58.382 98.9824 63.8409 97.9191 70.407C96.8558 76.973 99.081 83.0897 103.345 86.992Z" fill="#6EBD84"/>
<path d="M38.967 104.564C36.4678 98.8636 34.67 92.7908 33.6725 86.4659C23.6206 91.9906 -7.28041 109.836 19.5538 108.017C24.673 107.666 31.3377 106.427 38.967 104.564ZM125.466 89.886C126.233 95.3778 129.84 100.464 135.605 103.204C141.371 105.945 147.915 105.671 153.155 103.029C152.388 97.5373 148.781 92.451 143.016 89.7106C137.25 86.9702 130.695 87.2333 125.466 89.886ZM87.363 104.476C87.1328 110.012 89.7855 115.668 94.9704 119.384C100.155 123.1 106.645 124.01 112.268 122.333C112.498 116.797 109.845 111.141 104.661 107.425C99.4756 103.709 92.9753 102.799 87.363 104.476ZM103.444 86.3454C108.596 83.5392 112.531 78.2995 113.55 71.9965C114.57 65.6935 112.432 59.84 108.344 56.091C103.192 58.8972 99.2564 64.1369 98.237 70.4399C97.2175 76.7429 99.3551 82.6074 103.444 86.3454ZM110.372 0C132.492 0 152.201 8.65974 166.189 22.6469C179.639 36.0969 187.959 54.6112 187.959 75C187.959 95.3888 179.639 113.903 166.189 127.353C152.201 141.34 132.481 150 110.372 150C88.2508 150 68.5417 141.351 54.5546 127.353C51.1455 123.944 48.0652 120.206 45.3687 116.205C63.0718 111.152 85.1487 103.215 108.958 93.0758C116.609 89.8092 124.15 86.444 131.451 83.0349C138.784 79.6039 145.953 76.0962 152.815 72.5665C153.056 72.2705 153.21 72.0075 153.298 71.7553C135.879 79.7026 8.20849 132.089 0.447601 111.36C-3.63015 100.464 21.1871 86.17 32.9491 79.8012C32.8504 78.2118 32.7956 76.6114 32.7956 75C32.7956 54.6112 41.1155 36.1078 54.5656 22.6469C68.5527 8.65974 88.2618 0 110.372 0Z" fill="#002145"/>
<path d="M335.58 115.449V82.1361H340.162L349.885 103.917L359.4 82.1361H364.036V115.449H358.983V94.6763L351.913 110.68H347.703L340.633 94.6763V115.449H335.58ZM305.49 104.169V82.1361H310.543V103.61C310.543 105.824 311.201 107.567 312.505 108.85C313.722 110.066 315.334 110.669 317.329 110.669C319.324 110.669 320.957 110.045 322.217 108.795C323.478 107.545 324.114 105.813 324.114 103.599V82.1251H329.167V104.158C329.167 107.556 328.038 110.33 325.78 112.489C323.522 114.638 320.705 115.712 317.34 115.712C313.974 115.712 311.179 114.648 308.965 112.533C306.652 110.362 305.49 107.567 305.49 104.169ZM277.56 115.449V82.1361H290.571C293.377 82.1361 295.635 82.8705 297.356 84.3394C299.571 86.2467 300.678 88.6144 300.678 91.4535C300.678 93.602 300.097 95.5093 298.946 97.1646C297.795 98.8198 296.216 99.9927 294.221 100.672L301.938 115.46H295.953L289.08 101.231H282.624V115.46H277.56V115.449ZM282.613 86.6194V96.7261H290.242C292.051 96.7261 293.465 96.1999 294.495 95.1366C295.427 94.172 295.898 92.9333 295.898 91.4426C295.898 89.7544 295.339 88.4939 294.21 87.6498C293.279 86.9592 292.04 86.6194 290.516 86.6194H282.613ZM252.95 98.7869C252.95 101.56 252.983 103.204 253.049 103.698C253.235 105.605 253.762 107.118 254.639 108.236C255.921 109.858 257.631 110.669 259.791 110.669C261.939 110.669 263.66 109.858 264.943 108.236C265.82 107.118 266.346 105.605 266.532 103.698C266.598 103.193 266.631 101.56 266.631 98.7869C266.631 96.0136 266.598 94.3693 266.532 93.8761C266.346 91.9687 265.82 90.456 264.943 89.3379C263.66 87.7156 261.95 86.9044 259.791 86.9044C257.642 86.9044 255.921 87.7156 254.639 89.3379C253.762 90.456 253.235 91.9687 253.049 93.8761C252.983 94.3803 252.95 96.0136 252.95 98.7869ZM247.897 98.7869C247.897 95.049 248.007 92.473 248.226 91.0699C248.379 90.0066 248.752 88.9323 249.344 87.8471C250.254 86.1919 251.525 84.8327 253.181 83.7803C255.143 82.4978 257.346 81.862 259.78 81.862C262.213 81.862 264.416 82.4978 266.379 83.7803C268.034 84.8436 269.305 86.2029 270.215 87.8471C270.807 88.9433 271.18 90.0175 271.333 91.0699C271.553 92.473 271.662 95.049 271.662 98.7869C271.662 102.536 271.553 105.101 271.333 106.504C271.18 107.567 270.807 108.641 270.215 109.727C269.305 111.382 268.034 112.741 266.379 113.793C264.416 115.076 262.213 115.712 259.78 115.712C257.346 115.712 255.143 115.076 253.181 113.793C251.525 112.73 250.254 111.371 249.344 109.727C248.752 108.631 248.379 107.556 248.226 106.504C248.007 105.112 247.897 102.536 247.897 98.7869ZM223.891 115.449V82.1361H245.179V86.9044H228.944V96.7261H242.789V101.22H228.944V115.449H223.891ZM429.675 66.7458H435.013C434.356 69.8041 432.975 72.1609 430.87 73.8381C428.765 75.5042 426.244 76.3373 423.317 76.3373C420.884 76.3373 418.681 75.7015 416.718 74.419C415.063 73.3557 413.792 71.9965 412.882 70.3522C412.29 69.2561 411.917 68.1818 411.764 67.1295C411.544 65.7264 411.435 63.1504 411.435 59.4124C411.435 55.6745 411.544 53.0985 411.764 51.6954C411.917 50.6321 412.29 49.5579 412.882 48.4617C413.792 46.8065 415.063 45.4473 416.718 44.3949C418.681 43.1124 420.884 42.4766 423.317 42.4766C426.376 42.4766 428.974 43.4413 431.133 45.3815C433.194 47.1902 434.487 49.514 435.013 52.3531H429.675C429.27 50.9829 428.491 49.8319 427.34 48.9111C426.189 47.9904 424.841 47.53 423.317 47.53C421.169 47.53 419.448 48.3411 418.165 49.9635C417.288 51.0816 416.762 52.5943 416.576 54.5016C416.51 55.0058 416.477 56.6391 416.477 59.4124C416.477 62.1858 416.51 63.83 416.576 64.3233C416.762 66.2306 417.288 67.7433 418.165 68.8614C419.448 70.4838 421.158 71.2949 423.317 71.2949C426.145 71.284 428.272 69.7713 429.675 66.7458ZM400.473 76.0523V42.7397H405.526V76.0523H400.473ZM365.012 76.0523V42.7397H369.594L379.317 64.5206L388.832 42.7397H393.469V76.0523H388.415V55.2799L381.345 71.284H377.136L370.065 55.2799V76.0523H365.012ZM340.403 59.3905C340.403 62.1638 340.436 63.8081 340.502 64.3014C340.688 66.2087 341.214 67.7214 342.091 68.8395C343.374 70.4619 345.084 71.273 347.243 71.273C349.392 71.273 351.113 70.4619 352.395 68.8395C353.272 67.7214 353.798 66.2087 353.984 64.3014C354.05 63.7971 354.083 62.1638 354.083 59.3905C354.083 56.6172 354.05 54.973 353.984 54.4797C353.798 52.5723 353.272 51.0596 352.395 49.9415C351.113 48.3192 349.403 47.508 347.243 47.508C345.095 47.508 343.374 48.3192 342.091 49.9415C341.214 51.0596 340.688 52.5723 340.502 54.4797C340.436 54.9839 340.403 56.6172 340.403 59.3905ZM335.35 59.3905C335.35 55.6526 335.459 53.0766 335.679 51.6735C335.832 50.6102 336.205 49.5359 336.797 48.4398C337.706 46.7845 338.978 45.4253 340.633 44.373C342.595 43.0905 344.799 42.4547 347.232 42.4547C349.666 42.4547 351.869 43.0905 353.831 44.373C355.486 45.4363 356.758 46.7955 357.668 48.4398C358.26 49.5359 358.632 50.6102 358.786 51.6735C359.005 53.0766 359.115 55.6526 359.115 59.3905C359.115 63.1394 359.005 65.7045 358.786 67.1076C358.632 68.1708 358.26 69.2451 357.668 70.3303C356.758 71.9855 355.486 73.3448 353.831 74.3971C351.869 75.6796 349.666 76.3154 347.232 76.3154C344.799 76.3154 342.595 75.6796 340.633 74.3971C338.978 73.3338 337.706 71.9745 336.797 70.3303C336.205 69.2341 335.832 68.1599 335.679 67.1076C335.459 65.7154 335.35 63.1394 335.35 59.3905ZM304.46 76.0523V42.7397H309.118L324.311 66.4718L324.388 66.417V42.7397H329.441V76.0523H324.673L309.513 52.375V76.0523H304.46ZM279.851 59.3905C279.851 62.1638 279.883 63.8081 279.949 64.3014C280.136 66.2087 280.662 67.7214 281.539 68.8395C282.821 70.4619 284.531 71.273 286.691 71.273C288.839 71.273 290.56 70.4619 291.843 68.8395C292.72 67.7214 293.246 66.2087 293.432 64.3014C293.498 63.7971 293.531 62.1638 293.531 59.3905C293.531 56.6172 293.498 54.973 293.432 54.4797C293.246 52.5723 292.72 51.0596 291.843 49.9415C290.56 48.3192 288.85 47.508 286.691 47.508C284.542 47.508 282.821 48.3192 281.539 49.9415C280.662 51.0596 280.136 52.5723 279.949 54.4797C279.883 54.9839 279.851 56.6172 279.851 59.3905ZM274.797 59.3905C274.797 55.6526 274.907 53.0766 275.126 51.6735C275.279 50.6102 275.652 49.5359 276.244 48.4398C277.154 46.7845 278.425 45.4253 280.081 44.373C282.043 43.0905 284.246 42.4547 286.68 42.4547C289.113 42.4547 291.316 43.0905 293.279 44.373C294.934 45.4363 296.205 46.7955 297.115 48.4398C297.707 49.5359 298.08 50.6102 298.233 51.6735C298.453 53.0766 298.562 55.6526 298.562 59.3905C298.562 63.1394 298.453 65.7045 298.233 67.1076C298.08 68.1708 297.707 69.2451 297.115 70.3303C296.205 71.9855 294.934 73.3448 293.279 74.3971C291.316 75.6796 289.113 76.3154 286.68 76.3154C284.246 76.3154 282.043 75.6796 280.081 74.3971C278.425 73.3338 277.154 71.9745 276.244 70.3303C275.652 69.2341 275.279 68.1599 275.126 67.1076C274.907 65.7154 274.797 63.1394 274.797 59.3905ZM267.036 66.7458H272.375C271.717 69.8041 270.336 72.1609 268.231 73.8381C266.126 75.5042 263.605 76.3373 260.679 76.3373C258.245 76.3373 256.042 75.7015 254.08 74.419C252.424 73.3557 251.153 71.9965 250.243 70.3522C249.651 69.2561 249.278 68.1818 249.125 67.1295C248.906 65.7264 248.796 63.1504 248.796 59.4124C248.796 55.6745 248.906 53.0985 249.125 51.6954C249.278 50.6321 249.651 49.5579 250.243 48.4617C251.153 46.8065 252.424 45.4473 254.08 44.3949C256.042 43.1124 258.245 42.4766 260.679 42.4766C263.737 42.4766 266.346 43.4413 268.494 45.3815C270.555 47.1902 271.848 49.514 272.375 52.3531H267.036C266.631 50.9829 265.852 49.8319 264.701 48.9111C263.55 47.9904 262.202 47.53 260.679 47.53C258.53 47.53 256.809 48.3411 255.526 49.9635C254.65 51.0816 254.123 52.5943 253.937 54.5016C253.871 55.0058 253.849 56.6391 253.849 59.4124C253.849 62.1858 253.882 63.83 253.937 64.3233C254.123 66.2306 254.65 67.7433 255.526 68.8614C256.809 70.4838 258.519 71.2949 260.679 71.2949C263.507 71.284 265.633 69.7713 267.036 66.7458ZM223.891 76.0523V42.7397H245.179V47.508H228.944V57.0009H242.789V61.4952H228.944V71.273H245.179V76.0414H223.891V76.0523ZM365.012 36.6559V3.34332H369.671L384.864 27.0754L384.94 27.0206V3.34332H389.994V36.6559H385.225L370.065 12.9787V36.6559H365.012ZM356.177 36.6559L353.568 29.213H340.918L338.342 36.6559H333.004L345.127 3.34332H349.337L361.46 36.6559H356.177ZM342.365 24.7296H352.099L347.276 10.1834H347.177L342.365 24.7296ZM306.992 36.6559V3.34332H312.045V20.5203L325.846 3.34332H331.853L321.143 16.4426L332.971 36.6559H326.953L317.91 20.3559L312.056 26.4944V36.6559H306.992ZM280.98 36.6559V3.34332H286.033V31.8876H302.267V36.6559H280.98ZM272.144 36.6559L269.536 29.213H256.886L254.31 36.6559H248.971L261.095 3.34332H265.304L277.428 36.6559H272.144ZM258.333 24.7296H268.067L263.244 10.1834H263.156L258.333 24.7296ZM236.245 7.83761H228.944V17.3853H236.245C237.988 17.3853 239.347 16.9139 240.312 15.9822C241.189 15.1052 241.627 13.9871 241.627 12.6169C241.627 11.2467 241.189 10.1177 240.312 9.25168C239.347 8.29801 237.988 7.83761 236.245 7.83761ZM236.716 21.8686H228.944V31.8766H236.716C238.492 31.8766 239.862 31.3614 240.838 30.331C241.715 29.4212 242.142 28.2702 242.142 26.8671C242.142 25.464 241.704 24.2912 240.838 23.3594C239.862 22.3729 238.492 21.8686 236.716 21.8686ZM223.891 36.6559V3.34332H236.804C239.983 3.34332 242.449 4.16544 244.192 5.82066C245.847 7.41011 246.669 9.5586 246.669 12.2771C246.669 15.5875 245.036 17.9662 241.759 19.4351V19.5338C243.502 19.9394 244.861 20.904 245.825 22.4386C246.735 23.8088 247.185 25.3983 247.185 27.2069C247.185 30.0131 246.286 32.2932 244.499 34.0361C242.701 35.779 240.509 36.6559 237.922 36.6559H223.891Z" fill="#002145"/>
<path d="M426.156 146.536V132.68H435.013V134.675H428.261V138.622H434.016V140.485H428.261V144.552H435.013V146.536H426.156ZM414.285 146.536V132.68H419.689C420.851 132.68 421.794 132.987 422.506 133.59C423.427 134.38 423.887 135.366 423.887 136.55C423.887 137.449 423.646 138.238 423.164 138.929C422.682 139.619 422.024 140.101 421.202 140.387L424.413 146.536H421.925L419.064 140.617H416.379V146.536H414.285ZM416.389 134.555V138.753H419.557C420.314 138.753 420.895 138.534 421.322 138.096C421.717 137.69 421.903 137.186 421.903 136.561C421.903 135.859 421.673 135.333 421.202 134.982C420.807 134.697 420.303 134.555 419.667 134.555H416.389ZM401.778 141.844V132.68H403.882V141.614C403.882 142.535 404.156 143.258 404.704 143.796C405.209 144.3 405.877 144.552 406.71 144.552C407.543 144.552 408.223 144.289 408.749 143.774C409.275 143.258 409.538 142.535 409.538 141.614V132.68H411.643V141.844C411.643 143.258 411.172 144.409 410.229 145.308C409.286 146.207 408.113 146.646 406.721 146.646C405.318 146.646 404.156 146.207 403.235 145.319C402.26 144.42 401.778 143.258 401.778 141.844ZM394.652 146.536V134.555H390.86V132.691H400.55V134.555H396.757V146.536H394.652ZM379.788 141.844V132.68H381.893V141.614C381.893 142.535 382.167 143.258 382.715 143.796C383.219 144.3 383.888 144.552 384.721 144.552C385.554 144.552 386.234 144.289 386.749 143.774C387.275 143.258 387.538 142.535 387.538 141.614V132.68H389.643V141.844C389.643 143.258 389.172 144.409 388.229 145.308C387.286 146.207 386.113 146.646 384.721 146.646C383.318 146.646 382.156 146.207 381.235 145.319C380.271 144.42 379.788 143.258 379.788 141.844ZM369.594 146.536V132.68H378.451V134.675H371.699V138.764H377.454V140.628H371.699V146.547H369.594V146.536ZM353.064 146.536V132.68H358.468C359.641 132.68 360.573 132.987 361.285 133.59C362.206 134.38 362.666 135.366 362.666 136.55C362.666 137.449 362.425 138.238 361.943 138.929C361.46 139.619 360.803 140.101 359.981 140.387L363.192 146.536H360.704L357.843 140.617H355.157V146.536H353.064ZM355.157 134.555V138.753H358.325C359.082 138.753 359.663 138.534 360.09 138.096C360.485 137.69 360.671 137.186 360.671 136.561C360.671 135.859 360.441 135.333 359.97 134.982C359.586 134.697 359.071 134.555 358.435 134.555H355.157ZM342.245 146.536V132.68H351.102V134.675H344.349V138.622H350.104V140.485H344.349V144.552H351.102V146.536H342.245ZM334.867 146.536V134.555H331.075V132.691H340.765V134.555H336.972V146.536H334.867ZM327.49 146.536V140.485H322.009V146.536H319.905V132.68H322.009V138.611H327.49V132.68H329.595V146.536H327.49ZM312.527 140.891V138.907H317.449V141.724C317.449 143.094 316.967 144.267 316.013 145.221C315.049 146.174 313.887 146.646 312.516 146.646C311.508 146.646 310.587 146.383 309.776 145.845C309.085 145.407 308.559 144.837 308.176 144.157C307.923 143.708 307.77 143.258 307.704 142.82C307.617 142.239 307.573 141.165 307.573 139.608C307.573 138.052 307.617 136.977 307.704 136.396C307.77 135.958 307.923 135.509 308.176 135.059C308.548 134.369 309.085 133.809 309.776 133.371C310.598 132.845 311.508 132.571 312.516 132.571C313.788 132.571 314.873 132.976 315.761 133.777C316.616 134.533 317.153 135.498 317.372 136.671H315.158C314.994 136.1 314.665 135.618 314.183 135.245C313.7 134.862 313.141 134.675 312.505 134.675C311.607 134.675 310.894 135.015 310.368 135.684C310.006 136.155 309.787 136.78 309.71 137.569C309.688 137.778 309.666 138.457 309.666 139.608C309.666 140.759 309.677 141.439 309.71 141.647C309.787 142.436 310.006 143.072 310.368 143.533C310.905 144.212 311.618 144.541 312.505 144.541C313.306 144.541 313.985 144.267 314.533 143.719C315.081 143.171 315.355 142.469 315.355 141.603V140.88H312.527V140.891ZM303.024 146.536V132.68H305.128V146.536H303.024ZM291.152 146.536V132.68H296.556C297.718 132.68 298.661 132.987 299.373 133.59C300.294 134.38 300.755 135.366 300.755 136.55C300.755 137.449 300.513 138.238 300.031 138.929C299.549 139.619 298.891 140.101 298.069 140.387L301.281 146.536H298.792L295.931 140.617H293.246V146.536H291.152ZM293.257 134.555V138.753H296.425C297.181 138.753 297.762 138.534 298.189 138.096C298.584 137.69 298.77 137.186 298.77 136.561C298.77 135.859 298.54 135.333 298.069 134.982C297.685 134.697 297.17 134.555 296.534 134.555H293.257ZM284.422 134.555H281.385V138.523H284.422C285.145 138.523 285.715 138.326 286.11 137.942C286.471 137.58 286.658 137.109 286.658 136.539C286.658 135.969 286.471 135.498 286.11 135.136C285.715 134.752 285.145 134.555 284.422 134.555ZM284.619 140.387H281.385V144.552H284.619C285.353 144.552 285.934 144.333 286.329 143.905C286.691 143.533 286.877 143.05 286.877 142.469C286.877 141.888 286.691 141.395 286.329 141.011C285.923 140.595 285.353 140.387 284.619 140.387ZM279.281 146.536V132.68H284.652C285.978 132.68 286.998 133.02 287.721 133.711C288.412 134.369 288.751 135.267 288.751 136.396C288.751 137.767 288.072 138.764 286.713 139.378V139.422C287.436 139.586 288.006 139.992 288.401 140.628C288.773 141.198 288.96 141.855 288.96 142.612C288.96 143.774 288.587 144.727 287.842 145.451C287.096 146.174 286.186 146.536 285.112 146.536H279.281ZM270.939 146.536L269.853 143.445H264.592L263.518 146.536H261.292L266.335 132.68H268.089L273.131 146.536H270.939ZM265.195 141.581H269.24L267.234 135.53H267.19L265.195 141.581ZM246.209 146.536V132.68H251.613C252.775 132.68 253.718 132.987 254.43 133.59C255.351 134.38 255.812 135.366 255.812 136.55C255.812 137.449 255.57 138.238 255.088 138.929C254.606 139.619 253.948 140.101 253.126 140.387L256.338 146.536H253.849L250.988 140.617H248.303V146.536H246.209ZM248.314 134.555V138.753H251.482C252.238 138.753 252.819 138.534 253.257 138.096C253.641 137.69 253.838 137.186 253.838 136.561C253.838 135.859 253.608 135.333 253.137 134.982C252.742 134.697 252.238 134.555 251.602 134.555H248.314ZM235.971 139.608C235.971 140.759 235.982 141.439 236.015 141.647C236.091 142.436 236.311 143.072 236.672 143.533C237.209 144.212 237.922 144.541 238.81 144.541C239.709 144.541 240.421 144.201 240.947 143.533C241.309 143.061 241.528 142.436 241.605 141.647C241.627 141.439 241.649 140.759 241.649 139.608C241.649 138.457 241.638 137.778 241.605 137.569C241.528 136.78 241.309 136.144 240.947 135.684C240.41 135.004 239.698 134.675 238.81 134.675C237.911 134.675 237.199 135.015 236.672 135.684C236.311 136.155 236.091 136.78 236.015 137.569C235.993 137.778 235.971 138.457 235.971 139.608ZM233.877 139.608C233.877 138.052 233.921 136.977 234.009 136.396C234.074 135.958 234.228 135.509 234.48 135.059C234.853 134.369 235.39 133.809 236.08 133.371C236.903 132.845 237.812 132.571 238.821 132.571C239.829 132.571 240.75 132.834 241.561 133.371C242.252 133.809 242.778 134.38 243.162 135.059C243.414 135.509 243.567 135.958 243.633 136.396C243.721 136.977 243.765 138.052 243.765 139.608C243.765 141.165 243.721 142.239 243.633 142.82C243.567 143.258 243.414 143.708 243.162 144.157C242.789 144.848 242.252 145.407 241.561 145.845C240.739 146.383 239.829 146.646 238.821 146.646C237.812 146.646 236.892 146.383 236.08 145.845C235.39 145.407 234.864 144.837 234.48 144.157C234.239 143.708 234.074 143.258 234.009 142.82C233.921 142.239 233.877 141.165 233.877 139.608ZM223.891 146.536V132.68H232.748V134.675H225.996V138.764H231.751V140.628H225.996V146.547H223.891V146.536Z" fill="#002145"/>
</svg>
